<svg width="226" height="66" viewBox="0 0 226 66" fill="none" xmlns="http://www.w3.org/2000/svg">
<rect x="49" y="39" width="10" height="27" rx="1" fill="#D49B56"/>
<rect x="19" y="39" width="10" height="27" rx="1" fill="#D49B56"/>
<rect width="5" height="54.6951" rx="1" transform="matrix(-0.707107 0.707107 0.707107 0.707107 40.2157 13.7688)" fill="#D49B56"/>
<rect x="39.4441" y="13" width="5" height="55.7823" rx="1" transform="rotate(45 39.4441 13)" fill="#D49B56"/>
<rect width="5" height="54.6951" rx="1" transform="matrix(-0.707107 0.707107 0.707107 0.707107 40.2157 0.768799)" fill="#D49B56"/>
<rect x="39.4441" width="5" height="55.7823" rx="1" transform="rotate(45 39.4441 0)" fill="#D49B56"/>
<path d="M49 28.5V41H56.5L59 38.5L58 37.5L49 28.5Z" fill="#D49B56"/>
<path d="M29 29.5V41V41.5H20V40.5V38.5L29 29.5Z" fill="#D49B56"/>
<path d="M97.4707 39.0322C96.7044 39.0322 96.3213 38.8317 96.3213 38.4307V26.2061C96.3213 25.9984 96.4144 25.8444 96.6006 25.7441C96.7868 25.6367 97.0768 25.583 97.4707 25.583H98.4805C99.0892 25.583 99.4867 25.7585 99.6729 26.1094L102.885 31.8135L103.046 32.0928L103.207 31.7598L106.44 26.1094C106.634 25.7585 107.035 25.583 107.644 25.583H108.643C109.409 25.583 109.792 25.7907 109.792 26.2061V38.4307C109.792 38.8317 109.409 39.0322 108.643 39.0322H108.084C107.318 39.0322 106.935 38.8317 106.935 38.4307V30.5137L106.859 30.4922L104.088 35.4443C103.923 35.6878 103.669 35.8096 103.325 35.8096H102.777C102.598 35.8096 102.448 35.7809 102.326 35.7236C102.204 35.6592 102.101 35.5661 102.015 35.4443L99.2324 30.4922L99.1572 30.5137V38.4307C99.1572 38.8317 98.7777 39.0322 98.0186 39.0322H97.4707ZM118.074 39.1611C116.771 39.1611 115.661 38.8962 114.744 38.3662C113.835 37.8363 113.14 37.0628 112.66 36.0459C112.188 35.0218 111.951 33.7757 111.951 32.3076C111.951 30.8467 112.188 29.6077 112.66 28.5908C113.14 27.5667 113.835 26.7933 114.744 26.2705C115.661 25.7406 116.771 25.4756 118.074 25.4756C119.385 25.4756 120.495 25.7406 121.404 26.2705C122.321 26.7933 123.016 27.5667 123.488 28.5908C123.961 29.6077 124.197 30.8467 124.197 32.3076C124.197 33.7757 123.961 35.0218 123.488 36.0459C123.016 37.0628 122.321 37.8363 121.404 38.3662C120.495 38.8962 119.385 39.1611 118.074 39.1611ZM118.074 36.6475C119.098 36.6475 119.872 36.2786 120.395 35.541C120.917 34.7962 121.179 33.7184 121.179 32.3076C121.179 30.8968 120.917 29.8262 120.395 29.0957C119.872 28.3652 119.098 28 118.074 28C117.057 28 116.284 28.3688 115.754 29.1064C115.231 29.8369 114.97 30.904 114.97 32.3076C114.97 33.7184 115.235 34.7962 115.765 35.541C116.295 36.2786 117.064 36.6475 118.074 36.6475ZM127.527 39.0322C126.761 39.0322 126.378 38.8317 126.378 38.4307V26.2061C126.378 25.9984 126.471 25.8444 126.657 25.7441C126.843 25.6367 127.133 25.583 127.527 25.583H128.344C128.652 25.583 128.906 25.6188 129.106 25.6904C129.307 25.762 129.472 25.9017 129.601 26.1094L134.112 33.0596L134.628 33.833V26.2061C134.628 25.9984 134.721 25.8444 134.907 25.7441C135.093 25.6367 135.383 25.583 135.777 25.583H136.325C136.719 25.583 137.006 25.6367 137.185 25.7441C137.371 25.8444 137.464 25.9984 137.464 26.2061V38.4307C137.464 38.8317 137.084 39.0322 136.325 39.0322H135.595C135.28 39.0322 135.025 39 134.832 38.9355C134.639 38.8639 134.478 38.7279 134.349 38.5273L129.622 31.2979L129.214 30.6963V38.4307C129.214 38.8317 128.834 39.0322 128.075 39.0322H127.527ZM143.694 39.0322C142.928 39.0322 142.545 38.8317 142.545 38.4307V28.1289H139.516C139.315 28.1289 139.168 28.0537 139.075 27.9033C138.989 27.7529 138.946 27.5094 138.946 27.1729V26.5928C138.946 26.2562 138.989 26.0127 139.075 25.8623C139.168 25.7119 139.315 25.6367 139.516 25.6367H148.55C148.75 25.6367 148.894 25.7119 148.979 25.8623C149.073 26.0127 149.119 26.2562 149.119 26.5928V27.1729C149.119 27.5094 149.073 27.7529 148.979 27.9033C148.894 28.0537 148.75 28.1289 148.55 28.1289H145.51V38.4307C145.51 38.8317 145.127 39.0322 144.36 39.0322H143.694ZM156.413 39.1611C154.265 39.1611 152.678 38.6025 151.654 37.4854C150.637 36.3682 150.129 34.6315 150.129 32.2754C150.129 27.7422 152.256 25.4756 156.51 25.4756C157.09 25.4756 157.699 25.5329 158.336 25.6475C158.98 25.762 159.518 25.9232 159.947 26.1309C160.377 26.3314 160.592 26.557 160.592 26.8076C160.592 26.9867 160.52 27.223 160.377 27.5166C160.234 27.8031 160.065 28.0573 159.872 28.2793C159.679 28.5013 159.507 28.6123 159.356 28.6123C159.313 28.6123 159.21 28.5765 159.045 28.5049C158.687 28.3617 158.311 28.2435 157.917 28.1504C157.523 28.0501 157.036 28 156.456 28C155.332 28 154.497 28.3581 153.953 29.0742C153.416 29.7832 153.147 30.8574 153.147 32.2969C153.147 33.7363 153.42 34.8213 153.964 35.5518C154.508 36.2822 155.325 36.6475 156.413 36.6475C156.965 36.6475 157.462 36.6009 157.906 36.5078V34.0908H156.22C156.019 34.0908 155.872 34.0156 155.779 33.8652C155.693 33.7148 155.65 33.4714 155.65 33.1348V32.5225C155.65 32.193 155.693 31.9531 155.779 31.8027C155.872 31.6523 156.019 31.5771 156.22 31.5771H160.098C160.37 31.5771 160.567 31.638 160.688 31.7598C160.81 31.8743 160.871 32.0641 160.871 32.3291V37.6465C160.871 38.2194 160.391 38.6169 159.432 38.8389C158.472 39.0537 157.466 39.1611 156.413 39.1611ZM169.1 39.1611C167.796 39.1611 166.686 38.8962 165.77 38.3662C164.86 37.8363 164.165 37.0628 163.686 36.0459C163.213 35.0218 162.977 33.7757 162.977 32.3076C162.977 30.8467 163.213 29.6077 163.686 28.5908C164.165 27.5667 164.86 26.7933 165.77 26.2705C166.686 25.7406 167.796 25.4756 169.1 25.4756C170.41 25.4756 171.52 25.7406 172.43 26.2705C173.346 26.7933 174.041 27.5667 174.514 28.5908C174.986 29.6077 175.223 30.8467 175.223 32.3076C175.223 33.7757 174.986 35.0218 174.514 36.0459C174.041 37.0628 173.346 37.8363 172.43 38.3662C171.52 38.8962 170.41 39.1611 169.1 39.1611ZM169.1 36.6475C170.124 36.6475 170.897 36.2786 171.42 35.541C171.943 34.7962 172.204 33.7184 172.204 32.3076C172.204 30.8968 171.943 29.8262 171.42 29.0957C170.897 28.3652 170.124 28 169.1 28C168.083 28 167.309 28.3688 166.779 29.1064C166.257 29.8369 165.995 30.904 165.995 32.3076C165.995 33.7184 166.26 34.7962 166.79 35.541C167.32 36.2786 168.09 36.6475 169.1 36.6475ZM178.553 39.0322C177.786 39.0322 177.403 38.8317 177.403 38.4307V26.2061C177.403 25.9984 177.496 25.8444 177.683 25.7441C177.869 25.6367 178.159 25.583 178.553 25.583H179.562C180.171 25.583 180.569 25.7585 180.755 26.1094L183.967 31.8135L184.128 32.0928L184.289 31.7598L187.522 26.1094C187.716 25.7585 188.117 25.583 188.726 25.583H189.725C190.491 25.583 190.874 25.7907 190.874 26.2061V38.4307C190.874 38.8317 190.491 39.0322 189.725 39.0322H189.166C188.4 39.0322 188.017 38.8317 188.017 38.4307V30.5137L187.941 30.4922L185.17 35.4443C185.005 35.6878 184.751 35.8096 184.407 35.8096H183.859C183.68 35.8096 183.53 35.7809 183.408 35.7236C183.286 35.6592 183.183 35.5661 183.097 35.4443L180.314 30.4922L180.239 30.5137V38.4307C180.239 38.8317 179.86 39.0322 179.101 39.0322H178.553ZM194.258 39C193.993 39 193.799 38.9391 193.678 38.8174C193.556 38.6956 193.495 38.5023 193.495 38.2373V26.3887C193.495 26.1237 193.556 25.9339 193.678 25.8193C193.799 25.6976 193.993 25.6367 194.258 25.6367H201.251C201.451 25.6367 201.595 25.7119 201.681 25.8623C201.774 26.0127 201.82 26.2562 201.82 26.5928V27.1729C201.82 27.5094 201.774 27.7529 201.681 27.9033C201.595 28.0537 201.451 28.1289 201.251 28.1289H196.438V30.9004H200.735C200.936 30.9004 201.079 30.9756 201.165 31.126C201.258 31.2764 201.305 31.5199 201.305 31.8564V32.4473C201.305 32.7839 201.258 33.0273 201.165 33.1777C201.079 33.3281 200.936 33.4033 200.735 33.4033H196.438V36.4971H201.262C201.462 36.4971 201.605 36.5723 201.691 36.7227C201.785 36.873 201.831 37.113 201.831 37.4424V38.0439C201.831 38.3805 201.785 38.624 201.691 38.7744C201.605 38.9248 201.462 39 201.262 39H194.258ZM205.086 39.0322C204.32 39.0322 203.937 38.8317 203.937 38.4307V26.3887C203.937 26.1237 203.997 25.9339 204.119 25.8193C204.241 25.6976 204.434 25.6367 204.699 25.6367H208.427C211.592 25.6367 213.175 26.8291 213.175 29.2139C213.175 29.9372 212.971 30.5602 212.562 31.083C212.161 31.6058 211.621 31.9961 210.94 32.2539V32.3291C211.177 32.4294 211.424 32.6442 211.682 32.9736C211.947 33.3031 212.158 33.6755 212.315 34.0908L214.002 38.291C214.059 38.4629 214.088 38.5846 214.088 38.6562C214.088 38.9069 213.708 39.0322 212.949 39.0322H212.165C211.528 39.0322 211.159 38.8997 211.059 38.6348L209.544 34.9072C209.401 34.6208 209.261 34.3988 209.125 34.2412C208.996 34.0837 208.813 33.9655 208.577 33.8867C208.341 33.8008 208.022 33.7578 207.621 33.7578H206.88V38.4307C206.88 38.8317 206.497 39.0322 205.73 39.0322H205.086ZM208.685 31.2227C208.942 31.2227 209.186 31.151 209.415 31.0078C209.644 30.8574 209.827 30.6569 209.963 30.4062C210.099 30.1556 210.167 29.8799 210.167 29.5791C210.167 29.1351 210.02 28.7842 209.727 28.5264C209.44 28.2614 209.05 28.1289 208.556 28.1289H206.88V31.2227H208.685ZM219.309 39.0322C218.542 39.0322 218.159 38.8317 218.159 38.4307V32.5869L214.356 26.4424C214.235 26.2347 214.174 26.0771 214.174 25.9697C214.174 25.848 214.274 25.7549 214.475 25.6904C214.682 25.6188 214.99 25.583 215.398 25.583H216.204C216.512 25.583 216.759 25.6117 216.945 25.6689C217.139 25.7191 217.275 25.8122 217.354 25.9482L219.685 30.041L222.037 25.9482C222.116 25.8122 222.252 25.7191 222.445 25.6689C222.639 25.6117 222.886 25.583 223.187 25.583H223.863C224.271 25.583 224.576 25.6188 224.776 25.6904C224.977 25.7549 225.077 25.848 225.077 25.9697C225.077 26.113 225.016 26.2705 224.895 26.4424L221.103 32.6406V38.4307C221.103 38.8317 220.723 39.0322 219.964 39.0322H219.309Z" fill="white"/>
</svg>
